<svg width="18" height="18" viewBox="0 0 18 18" fill="none" xmlns="http://www.w3.org/2000/svg">
<path d="M16.8801 7.46163C16.9826 8.0108 17.0384 8.58496 17.0384 9.18413C17.0384 13.8708 13.9018 17.2033 9.16427 17.2033C8.0869 17.2036 7.02002 16.9917 6.0246 16.5795C5.02918 16.1674 4.12472 15.5631 3.36291 14.8013C2.60109 14.0395 1.99685 13.1351 1.58471 12.1396C1.17257 11.1442 0.960609 10.0773 0.960938 8.99996C0.960609 7.9226 1.17257 6.85572 1.58471 5.8603C1.99685 4.86487 2.60109 3.96041 3.36291 3.1986C4.12472 2.43678 5.02918 1.83254 6.0246 1.4204C7.02002 1.00826 8.0869 0.796303 9.16427 0.796631C11.3793 0.796631 13.2301 1.61163 14.6501 2.93496L12.3376 5.24746V5.24163C11.4768 4.42163 10.3843 4.0008 9.16427 4.0008C6.4576 4.0008 4.2576 6.28747 4.2576 8.99496C4.2576 11.7016 6.4576 13.9933 9.16427 13.9933C11.6201 13.9933 13.2918 12.5891 13.6351 10.6608H9.16427V7.46163H16.8809H16.8801Z" fill="#D491FA"/>
</svg>
