<svg width="20" height="20" viewBox="0 0 20 20" fill="none" xmlns="http://www.w3.org/2000/svg">
<path d="M5.23636 3.91781L3.6 2.2831L2.31818 3.57078L3.94545 5.20548L5.23636 3.91781ZM2.72727 9.08676H0V10.9132H2.72727V9.08676ZM10.9091 0H9.09091V2.69406H10.9091V0ZM17.6818 3.57078L16.4 2.2831L14.7727 3.91781L16.0545 5.20548L17.6818 3.57078ZM14.7636 16.0822L16.3909 17.726L17.6727 16.4384L16.0364 14.8037L14.7636 16.0822ZM17.2727 9.08676V10.9132H20V9.08676H17.2727ZM10 4.52055C6.99091 4.52055 4.54545 6.97717 4.54545 10C4.54545 13.0228 6.99091 15.4795 10 15.4795C13.0091 15.4795 15.4545 13.0228 15.4545 10C15.4545 6.97717 13.0091 4.52055 10 4.52055ZM9.09091 20H10.9091V17.3059H9.09091V20ZM2.31818 16.4292L3.6 17.7169L5.22727 16.0731L3.94545 14.7854L2.31818 16.4292Z" fill="#FF8F00"/>
</svg>
