<svg width="20" height="19" viewBox="0 0 20 19" fill="none" xmlns="http://www.w3.org/2000/svg">
<path d="M5.23636 3.91781L3.6 2.2831L2.31818 3.57078L3.94545 5.20548L5.23636 3.91781ZM2.72727 9.08676H0V10.9132H2.72727V9.08676ZM10.9091 0H9.09091V2.69406H10.9091V0ZM17.6818 3.57078L16.4 2.2831L14.7727 3.91781L16.0545 5.20548L17.6818 3.57078ZM17.2727 9.08676V10.9132H20V9.08676H17.2727ZM10 4.52055C6.99091 4.52055 4.54545 6.97717 4.54545 10C4.54545 13.0228 6.99091 15.4795 10 15.4795C13.0091 15.4795 15.4545 13.0228 15.4545 10C15.4545 6.97717 13.0091 4.52055 10 4.52055Z" fill="#79D088"/>
<ellipse cx="8.23514" cy="12.5293" rx="3.31992" ry="2.5" transform="rotate(-6.97246 8.23514 12.5293)" fill="white"/>
<ellipse cx="12.311" cy="13.0383" rx="3.31992" ry="2.5" transform="rotate(-6.97246 12.311 13.0383)" fill="white"/>
<ellipse cx="5.84164" cy="14.8369" rx="3.31992" ry="2.5" transform="rotate(-6.97246 5.84164 14.8369)" fill="white"/>
<ellipse cx="9.91745" cy="15.3458" rx="3.31992" ry="2.5" transform="rotate(-6.97246 9.91745 15.3458)" fill="white"/>
<ellipse cx="13.8719" cy="14.8623" rx="3.31992" ry="2.5" transform="rotate(-6.97246 13.8719 14.8623)" fill="white"/>
</svg>
