<svg width="24" height="24" viewBox="0 0 24 24" fill="none" xmlns="http://www.w3.org/2000/svg">
<path d="M21 7V6.25C21 4.458 19.542 3 17.75 3H6.25C4.458 3 3 4.458 3 6.25V7H21ZM3 8.5V17.75C3 19.542 4.458 21 6.25 21H17.75C19.542 21 21 19.542 21 17.75V8.5H3ZM7.75 18C7.0595 18 6.5 17.4405 6.5 16.75C6.5 16.0595 7.0595 15.5 7.75 15.5C8.4405 15.5 9 16.0595 9 16.75C9 17.4405 8.4405 18 7.75 18ZM7.75 13.5C7.0595 13.5 6.5 12.9405 6.5 12.25C6.5 11.5595 7.0595 11 7.75 11C8.4405 11 9 11.5595 9 12.25C9 12.9405 8.4405 13.5 7.75 13.5ZM12 18C11.3095 18 10.75 17.4405 10.75 16.75C10.75 16.0595 11.3095 15.5 12 15.5C12.6905 15.5 13.25 16.0595 13.25 16.75C13.25 17.4405 12.6905 18 12 18ZM12 13.5C11.3095 13.5 10.75 12.9405 10.75 12.25C10.75 11.5595 11.3095 11 12 11C12.6905 11 13.25 11.5595 13.25 12.25C13.25 12.9405 12.6905 13.5 12 13.5ZM16.25 13.5C15.5595 13.5 15 12.9405 15 12.25C15 11.5595 15.5595 11 16.25 11C16.9405 11 17.5 11.5595 17.5 12.25C17.5 12.9405 16.9405 13.5 16.25 13.5Z" fill="#1564FF"/>
</svg>
