<svg width="21" height="21" viewBox="0 0 21 21" fill="none" xmlns="http://www.w3.org/2000/svg">
<path d="M18.0469 3.77344H14.6016V2.46094C14.6016 2.3707 14.5277 2.29688 14.4375 2.29688H13.2891C13.1988 2.29688 13.125 2.3707 13.125 2.46094V3.77344H7.875V2.46094C7.875 2.3707 7.80117 2.29688 7.71094 2.29688H6.5625C6.47227 2.29688 6.39844 2.3707 6.39844 2.46094V3.77344H2.95312C2.59014 3.77344 2.29688 4.0667 2.29688 4.42969V18.0469C2.29688 18.4099 2.59014 18.7031 2.95312 18.7031H18.0469C18.4099 18.7031 18.7031 18.4099 18.7031 18.0469V4.42969C18.7031 4.0667 18.4099 3.77344 18.0469 3.77344ZM17.2266 17.2266H3.77344V9.43359H17.2266V17.2266ZM3.77344 8.03906V5.25H6.39844V6.23438C6.39844 6.32461 6.47227 6.39844 6.5625 6.39844H7.71094C7.80117 6.39844 7.875 6.32461 7.875 6.23438V5.25H13.125V6.23438C13.125 6.32461 13.1988 6.39844 13.2891 6.39844H14.4375C14.5277 6.39844 14.6016 6.32461 14.6016 6.23438V5.25H17.2266V8.03906H3.77344Z" fill="#D4D4D4"/>
</svg>
