<svg width="21" height="21" viewBox="0 0 21 21" fill="none" xmlns="http://www.w3.org/2000/svg">
<path d="M2.29688 18.0469C2.29688 18.4099 2.59014 18.7031 2.95312 18.7031H18.0469C18.4099 18.7031 18.7031 18.4099 18.7031 18.0469V9.43359H2.29688V18.0469ZM18.0469 3.77344H14.6016V2.46094C14.6016 2.3707 14.5277 2.29688 14.4375 2.29688H13.2891C13.1988 2.29688 13.125 2.3707 13.125 2.46094V3.77344H7.875V2.46094C7.875 2.3707 7.80117 2.29688 7.71094 2.29688H6.5625C6.47227 2.29688 6.39844 2.3707 6.39844 2.46094V3.77344H2.95312C2.59014 3.77344 2.29688 4.0667 2.29688 4.42969V8.03906H18.7031V4.42969C18.7031 4.0667 18.4099 3.77344 18.0469 3.77344Z" fill="#1564FF"/>
</svg>
