<svg width="24" height="24" viewBox="0 0 24 24" fill="none" xmlns="http://www.w3.org/2000/svg">
<path d="M6.25 3C4.46403 3 3 4.46403 3 6.25V17.75C3 19.536 4.46403 21 6.25 21H17.75C19.536 21 21 19.536 21 17.75V6.25C21 4.46403 19.536 3 17.75 3H6.25ZM6.25 4.5H17.75C18.725 4.5 19.5 5.27497 19.5 6.25V7H4.5V6.25C4.5 5.27497 5.27497 4.5 6.25 4.5ZM4.5 8.5H19.5V17.75C19.5 18.725 18.725 19.5 17.75 19.5H6.25C5.27497 19.5 4.5 18.725 4.5 17.75V8.5ZM7.75 10.5C7.41848 10.5 7.10054 10.6317 6.86612 10.8661C6.6317 11.1005 6.5 11.4185 6.5 11.75C6.5 12.0815 6.6317 12.3995 6.86612 12.6339C7.10054 12.8683 7.41848 13 7.75 13C8.08152 13 8.39946 12.8683 8.63388 12.6339C8.8683 12.3995 9 12.0815 9 11.75C9 11.4185 8.8683 11.1005 8.63388 10.8661C8.39946 10.6317 8.08152 10.5 7.75 10.5ZM12 10.5C11.6685 10.5 11.3505 10.6317 11.1161 10.8661C10.8817 11.1005 10.75 11.4185 10.75 11.75C10.75 12.0815 10.8817 12.3995 11.1161 12.6339C11.3505 12.8683 11.6685 13 12 13C12.3315 13 12.6495 12.8683 12.8839 12.6339C13.1183 12.3995 13.25 12.0815 13.25 11.75C13.25 11.4185 13.1183 11.1005 12.8839 10.8661C12.6495 10.6317 12.3315 10.5 12 10.5ZM16.25 10.5C15.9185 10.5 15.6005 10.6317 15.3661 10.8661C15.1317 11.1005 15 11.4185 15 11.75C15 12.0815 15.1317 12.3995 15.3661 12.6339C15.6005 12.8683 15.9185 13 16.25 13C16.5815 13 16.8995 12.8683 17.1339 12.6339C17.3683 12.3995 17.5 12.0815 17.5 11.75C17.5 11.4185 17.3683 11.1005 17.1339 10.8661C16.8995 10.6317 16.5815 10.5 16.25 10.5ZM7.75 15C7.41848 15 7.10054 15.1317 6.86612 15.3661C6.6317 15.6005 6.5 15.9185 6.5 16.25C6.5 16.5815 6.6317 16.8995 6.86612 17.1339C7.10054 17.3683 7.41848 17.5 7.75 17.5C8.08152 17.5 8.39946 17.3683 8.63388 17.1339C8.8683 16.8995 9 16.5815 9 16.25C9 15.9185 8.8683 15.6005 8.63388 15.3661C8.39946 15.1317 8.08152 15 7.75 15ZM12 15C11.6685 15 11.3505 15.1317 11.1161 15.3661C10.8817 15.6005 10.75 15.9185 10.75 16.25C10.75 16.5815 10.8817 16.8995 11.1161 17.1339C11.3505 17.3683 11.6685 17.5 12 17.5C12.3315 17.5 12.6495 17.3683 12.8839 17.1339C13.1183 16.8995 13.25 16.5815 13.25 16.25C13.25 15.9185 13.1183 15.6005 12.8839 15.3661C12.6495 15.1317 12.3315 15 12 15Z" fill="#D5D5D5"/>
</svg>
