<svg width="38" height="38" viewBox="0 0 38 38" fill="none" xmlns="http://www.w3.org/2000/svg">
<path d="M19 4C10.7292 4 4 10.7292 4 19C4 27.2708 10.7292 34 19 34C27.2708 34 34 27.2708 34 19C34 10.7292 27.2708 4 19 4ZM19 6.30769C26.0235 6.30769 31.6923 11.9765 31.6923 19C31.6923 26.0235 26.0235 31.6923 19 31.6923C11.9765 31.6923 6.30769 26.0235 6.30769 19C6.30769 11.9765 11.9765 6.30769 19 6.30769ZM14.6385 12.9769L12.9769 14.6385L17.3431 19L12.9792 23.3615L14.6408 25.0231L19 20.6581L23.3615 25.0196L25.0231 23.3615L20.6581 19L25.0196 14.6385L23.3615 12.9769L19 17.3431L14.6385 12.9792V12.9769Z" fill="white"/>
</svg>
