<svg width="40" height="40" viewBox="0 0 40 40" fill="none" xmlns="http://www.w3.org/2000/svg">
<path d="M19.9987 3.33301C10.8088 3.33301 3.33203 10.8097 3.33203 19.9997C3.33203 29.1896 10.8088 36.6663 19.9987 36.6663C29.1886 36.6663 36.6654 29.1896 36.6654 19.9997C36.6654 10.8097 29.1886 3.33301 19.9987 3.33301ZM19.9987 5.83301C27.8375 5.83301 34.1654 12.1608 34.1654 19.9997C34.1654 27.8385 27.8375 34.1663 19.9987 34.1663C12.1599 34.1663 5.83203 27.8385 5.83203 19.9997C5.83203 12.1608 12.1599 5.83301 19.9987 5.83301ZM26.2243 14.9883C25.8997 14.9977 25.5914 15.1332 25.3649 15.3659L17.9154 22.8154L14.6325 19.5326C14.5173 19.4126 14.3793 19.3168 14.2267 19.2508C14.074 19.1849 13.9097 19.15 13.7434 19.1483C13.5771 19.1466 13.4122 19.1781 13.2582 19.241C13.1042 19.3039 12.9644 19.3968 12.8468 19.5144C12.7292 19.632 12.6362 19.7719 12.5733 19.9258C12.5105 20.0798 12.479 20.2448 12.4807 20.4111C12.4824 20.5774 12.5172 20.7417 12.5832 20.8943C12.6492 21.047 12.7449 21.1849 12.8649 21.3001L17.0316 25.4668C17.266 25.7011 17.5839 25.8328 17.9154 25.8328C18.2468 25.8328 18.5647 25.7011 18.7992 25.4668L27.1325 17.1335C27.3128 16.9578 27.4359 16.7319 27.4857 16.4851C27.5355 16.2383 27.5096 15.9823 27.4115 15.7505C27.3133 15.5187 27.1475 15.3219 26.9357 15.1859C26.7239 15.0499 26.4759 14.981 26.2243 14.9883Z" fill="black"/>
</svg>
