<svg width="25" height="25" viewBox="0 0 25 25" fill="none" xmlns="http://www.w3.org/2000/svg">
<path d="M21.1806 0H3.81944C1.71389 0 0 1.71389 0 3.81944V21.1806C0 23.2861 1.71389 25 3.81944 25H21.1806C23.2861 25 25 23.2861 25 21.1806V3.81944C25 1.71389 23.2861 0 21.1806 0ZM20.5285 8.72292L10.8063 18.4451C10.6028 18.6486 10.3361 18.75 10.0694 18.75C9.80278 18.75 9.53611 18.6486 9.33264 18.4451L5.16597 14.2785C4.75903 13.8715 4.75903 13.2125 5.16597 12.8056C5.57292 12.3986 6.23194 12.3986 6.63889 12.8056L10.0687 16.2354L19.0542 7.25C19.4611 6.84306 20.1201 6.84306 20.5271 7.25C20.934 7.65694 20.9347 8.31597 20.5285 8.72292Z" fill="white"/>
</svg>
