<svg width="44" height="44" viewBox="0 0 44 44" fill="none" xmlns="http://www.w3.org/2000/svg">
<g filter="url(#filter0_d_1606_610)">
<path d="M21.9987 0.333008C12.8088 0.333008 5.33203 7.80974 5.33203 16.9997C5.33203 26.1896 12.8088 33.6663 21.9987 33.6663C31.1886 33.6663 38.6654 26.1896 38.6654 16.9997C38.6654 7.80974 31.1886 0.333008 21.9987 0.333008ZM21.9987 2.83301C29.8375 2.83301 36.1654 9.16083 36.1654 16.9997C36.1654 24.8385 29.8375 31.1663 21.9987 31.1663C14.1599 31.1663 7.83203 24.8385 7.83203 16.9997C7.83203 13.281 9.26764 9.91302 11.6016 7.38867L20.153 12.6507C20.9597 13.1474 21.9987 12.5679 21.9987 11.6204V2.83301ZM13.5938 11.1582C13.3237 11.1701 13.0648 11.2693 12.8558 11.4408C12.6468 11.6123 12.4991 11.8469 12.4348 12.1095C12.3704 12.3721 12.3929 12.6484 12.4988 12.8971C12.6048 13.1458 12.7885 13.3535 13.0225 13.4889L21.3558 18.4889C21.5279 18.5921 21.7223 18.6523 21.9226 18.6645C22.1229 18.6767 22.3232 18.6405 22.5065 18.5589L30.0065 15.2256C30.1566 15.1589 30.2921 15.0634 30.4052 14.9443C30.5184 14.8253 30.6069 14.6851 30.6659 14.5319C30.7249 14.3786 30.7531 14.2152 30.7489 14.0511C30.7447 13.8869 30.7082 13.7251 30.6415 13.5751C30.5748 13.425 30.4792 13.2895 30.3602 13.1764C30.2411 13.0633 30.101 12.9748 29.9477 12.9158C29.7944 12.8569 29.631 12.8287 29.4668 12.833C29.3027 12.8372 29.1409 12.8737 28.9909 12.9404L22.085 16.0101L14.3083 11.3438C14.0942 11.2114 13.8452 11.1467 13.5938 11.1582Z" fill="white"/>
</g>
<defs>
<filter id="filter0_d_1606_610" x="0.332031" y="0.333008" width="43.332" height="43.333" filterUnits="userSpaceOnUse" color-interpolation-filters="sRGB">
<feFlood flood-opacity="0" result="BackgroundImageFix"/>
<feColorMatrix in="SourceAlpha" type="matrix" values="0 0 0 0 0 0 0 0 0 0 0 0 0 0 0 0 0 0 127 0" result="hardAlpha"/>
<feOffset dy="5"/>
<feGaussianBlur stdDeviation="2.5"/>
<feComposite in2="hardAlpha" operator="out"/>
<feColorMatrix type="matrix" values="0 0 0 0 0 0 0 0 0 0 0 0 0 0 0 0 0 0 0.1 0"/>
<feBlend mode="normal" in2="BackgroundImageFix" result="effect1_dropShadow_1606_610"/>
<feBlend mode="normal" in="SourceGraphic" in2="effect1_dropShadow_1606_610" result="shape"/>
</filter>
</defs>
</svg>
