<svg width="20" height="20" viewBox="0 0 20 20" fill="none" xmlns="http://www.w3.org/2000/svg">
<circle cx="10" cy="10" r="7.4" stroke="black" stroke-width="1.2"/>
<path d="M7.48047 14H8.56445L9.375 10.875H10.625L11.4355 14H12.5098L13.3252 10.875H14.3652V10.0449H13.54L14.3555 6.92969H13.3105L12.5635 10.0449H11.3184L10.5371 6.92969H9.46289L8.68164 10.0449H7.43164L6.68945 6.92969H5.64453L6.45508 10.0449H5.63477V10.875H6.66992L7.48047 14ZM7.63184 10.875H8.47168L8.07617 12.4473H8.00781L7.63184 10.875ZM9.59473 10.0449L9.9707 8.58984H10.0293L10.4053 10.0449H9.59473ZM11.5283 10.875H12.3633L11.9824 12.457H11.9238L11.5283 10.875Z" fill="black"/>
</svg>
