<svg width="44" height="44" viewBox="0 0 44 44" fill="none" xmlns="http://www.w3.org/2000/svg">
<g filter="url(#filter0_d_1606_620)">
<path d="M21.9987 0.333008C12.8089 0.333008 5.33203 7.80992 5.33203 16.9997C5.33203 24.1323 9.82304 30.236 16.1426 32.6084C16.2967 32.6684 16.4612 32.6971 16.6266 32.693C16.7919 32.689 16.9548 32.6521 17.1058 32.5846C17.2568 32.5171 17.393 32.4203 17.5063 32.2999C17.6196 32.1794 17.7079 32.0376 17.7661 31.8828C17.8242 31.7279 17.851 31.5631 17.845 31.3978C17.839 31.2325 17.8002 31.0701 17.731 30.9199C17.6617 30.7697 17.5634 30.6347 17.4416 30.5228C17.3198 30.4109 17.177 30.3242 17.0215 30.2679C11.656 28.2537 7.83203 23.0837 7.83203 16.9997C7.83203 9.1611 14.1601 2.83301 21.9987 2.83301C29.8373 2.83301 36.1654 9.1611 36.1654 16.9997C36.1654 23.0837 32.3411 28.2545 26.9759 30.2679C26.8204 30.3242 26.6776 30.4109 26.5558 30.5228C26.434 30.6347 26.3357 30.7697 26.2664 30.9199C26.1971 31.0701 26.1584 31.2325 26.1524 31.3978C26.1464 31.5631 26.1732 31.7279 26.2313 31.8828C26.2895 32.0376 26.3778 32.1794 26.4911 32.2999C26.6044 32.4203 26.7406 32.5171 26.8916 32.5846C27.0426 32.6521 27.2055 32.689 27.3708 32.693C27.5362 32.6971 27.7007 32.6684 27.8548 32.6084C34.1746 30.2368 38.6654 24.1323 38.6654 16.9997C38.6654 7.80992 31.1885 0.333008 21.9987 0.333008ZM21.9808 11.1663C21.6555 11.1711 21.3449 11.3025 21.1149 11.5326L16.1149 16.5326C15.9949 16.6477 15.8992 16.7857 15.8332 16.9384C15.7672 17.091 15.7324 17.2553 15.7307 17.4216C15.729 17.5879 15.7605 17.7529 15.8233 17.9068C15.8862 18.0608 15.9792 18.2007 16.0968 18.3183C16.2144 18.4359 16.3542 18.5288 16.5082 18.5917C16.6622 18.6546 16.8271 18.6861 16.9934 18.6844C17.1597 18.6827 17.324 18.6478 17.4767 18.5818C17.6293 18.5159 17.7673 18.4201 17.8825 18.3001L20.7503 15.4323L20.765 32.418C20.7629 32.5836 20.7937 32.748 20.8557 32.9016C20.9176 33.0553 21.0095 33.195 21.126 33.3128C21.2424 33.4306 21.3811 33.5241 21.534 33.5878C21.6869 33.6516 21.851 33.6843 22.0166 33.6841C22.1823 33.6838 22.3462 33.6507 22.499 33.5866C22.6517 33.5225 22.7902 33.4286 22.9063 33.3105C23.0225 33.1924 23.114 33.0524 23.1756 32.8986C23.2371 32.7448 23.2675 32.5803 23.265 32.4147L23.2503 15.4355L26.1149 18.3001C26.2301 18.4201 26.3681 18.5159 26.5207 18.5818C26.6734 18.6478 26.8377 18.6827 27.004 18.6844C27.1703 18.6861 27.3352 18.6546 27.4892 18.5917C27.6432 18.5288 27.783 18.4359 27.9006 18.3183C28.0182 18.2007 28.1112 18.0608 28.1741 17.9068C28.2369 17.7529 28.2684 17.5879 28.2667 17.4216C28.265 17.2553 28.2302 17.091 28.1642 16.9384C28.0982 16.7857 28.0025 16.6477 27.8825 16.5326L22.8825 11.5326C22.7643 11.4143 22.6236 11.321 22.4687 11.2581C22.3139 11.1952 22.1479 11.164 21.9808 11.1663Z" fill="#1564FF"/>
</g>
<defs>
<filter id="filter0_d_1606_620" x="0.332031" y="0.333008" width="43.332" height="43.3506" filterUnits="userSpaceOnUse" color-interpolation-filters="sRGB">
<feFlood flood-opacity="0" result="BackgroundImageFix"/>
<feColorMatrix in="SourceAlpha" type="matrix" values="0 0 0 0 0 0 0 0 0 0 0 0 0 0 0 0 0 0 127 0" result="hardAlpha"/>
<feOffset dy="5"/>
<feGaussianBlur stdDeviation="2.5"/>
<feComposite in2="hardAlpha" operator="out"/>
<feColorMatrix type="matrix" values="0 0 0 0 0 0 0 0 0 0 0 0 0 0 0 0 0 0 0.1 0"/>
<feBlend mode="normal" in2="BackgroundImageFix" result="effect1_dropShadow_1606_620"/>
<feBlend mode="normal" in="SourceGraphic" in2="effect1_dropShadow_1606_620" result="shape"/>
</filter>
</defs>
</svg>
