<svg width="36" height="36" viewBox="0 0 36 36" fill="none" xmlns="http://www.w3.org/2000/svg">
<path d="M27.962 2.448L25.757 0H8.39238C7.13958 0 6.65538 0.9288 6.65538 1.6542V8.1882H9.09078V2.9754C9.09078 2.6982 9.32478 2.4642 9.59478 2.4642H22.0202C22.2938 2.4642 22.4306 2.5128 22.4306 2.7378V11.4138H31.274C31.6214 11.4138 31.7564 11.5938 31.7564 11.8566V33.0426C31.7564 33.4854 31.5764 33.552 31.3064 33.552H9.59478C9.4609 33.5487 9.33351 33.4936 9.23948 33.3982C9.14546 33.3029 9.09214 33.1747 9.09078 33.0408V31.104H6.67158V34.155C6.63918 35.235 7.21518 36 8.39238 36H32.5088C33.7688 36 34.199 35.0874 34.199 34.2558V9.3366L33.569 8.6526L27.9602 2.4498L27.962 2.448ZM24.9056 2.736L25.6022 3.5172L30.275 8.6526L30.5324 8.964H25.757C25.397 8.964 25.1684 8.9046 25.073 8.784C24.9776 8.667 24.9218 8.478 24.9056 8.2206V2.736ZM22.9436 19.2006H31.1822V21.6018H22.9418V19.2006H22.9436ZM22.9436 14.4018H31.1822V16.8012H22.9418V14.4L22.9436 14.4018ZM22.9436 24.0012H31.1822V26.4024H22.9418V24.0012H22.9436ZM1.80078 10.1268V29.3274H20.6378V10.1268H1.80078ZM11.2202 21.294L10.0682 23.0544H11.2202V25.2H5.42958L9.63078 18.882L5.90838 13.2012H9.01878L11.222 16.506L13.4234 13.2012H16.532L12.8024 18.882L17.009 25.2H13.7816L11.2202 21.294Z" fill="white"/>
</svg>
