<svg width="40" height="40" viewBox="0 0 40 40" fill="none" xmlns="http://www.w3.org/2000/svg">
<path d="M23.75 1.66712C23.5844 1.66477 23.4199 1.69538 23.2662 1.75714C23.1125 1.81891 22.9726 1.91061 22.8546 2.02692C22.7367 2.14322 22.643 2.28181 22.5791 2.43463C22.5151 2.58746 22.4822 2.75146 22.4822 2.91712C22.4822 3.08277 22.5151 3.24678 22.5791 3.3996C22.643 3.55242 22.7367 3.69101 22.8546 3.80732C22.9726 3.92362 23.1125 4.01532 23.2662 4.07709C23.4199 4.13886 23.5844 4.16946 23.75 4.16712H24.2334C24.1877 4.30122 24.1651 4.44212 24.1667 4.58378C24.1667 6.10541 23.8803 8.57591 23.4408 9.89303C23.4397 9.8952 23.4386 9.89737 23.4375 9.89954L23.4212 9.95162C23.3406 10.1914 23.2028 10.4546 23.0159 10.7508C23.0154 10.7508 23.0149 10.7508 23.0143 10.7508C22.5575 11.4757 22.257 12.2728 22.0296 13.0929L18.5596 11.0112C18.2968 10.8538 17.9854 10.7984 17.6845 10.8554C17.3836 10.9124 17.1141 11.0779 16.9271 11.3204L15.3564 13.3549C14.2828 12.619 13.0596 12.0838 11.6667 12.0838C8.14022 12.0838 5.23921 14.8599 5.02116 18.3338H4.58333C3.447 18.3338 2.5 19.2808 2.5 20.4171V25.4171C2.5 26.3923 3.2507 27.1088 4.16667 27.3263V32.9171C4.16667 35.8937 6.60672 38.3338 9.58333 38.3338H30.4167C33.3933 38.3338 35.8333 35.8937 35.8333 32.9171V27.3263C36.7493 27.1088 37.5 26.3923 37.5 25.4171V20.4171C37.5 19.2808 36.553 18.3338 35.4167 18.3338H35V15.4187C35 13.7625 34.5298 12.1443 33.6507 10.7508C33.4639 10.4546 33.3261 10.1914 33.2454 9.95162L33.2438 9.94674L33.2292 9.89954C33.2281 9.89737 33.227 9.8952 33.2259 9.89303C32.7864 8.57594 32.5 6.10541 32.5 4.58378C32.5015 4.44212 32.479 4.30122 32.4333 4.16712H32.9167C33.0823 4.16946 33.2468 4.13886 33.4005 4.07709C33.5542 4.01532 33.6941 3.92362 33.812 3.80732C33.93 3.69101 34.0237 3.55242 34.0876 3.3996C34.1515 3.24678 34.1845 3.08277 34.1845 2.91712C34.1845 2.75146 34.1515 2.58746 34.0876 2.43463C34.0237 2.28181 33.93 2.14322 33.812 2.02692C33.6941 1.91061 33.5542 1.81891 33.4005 1.75714C33.2468 1.69538 33.0823 1.66477 32.9167 1.66712H23.75ZM26.5999 4.16712H30.0667C30.021 4.30122 29.9985 4.44212 30 4.58378C30 6.37236 30.2451 8.85502 30.8529 10.6792L30.8708 10.7312C30.8713 10.7334 30.8718 10.7356 30.8724 10.7378C31.0469 11.2602 31.2944 11.7 31.5365 12.0838C32.164 13.0786 32.5 14.235 32.5 15.4187V18.3338H30.7633L24.2985 14.4552C24.4312 13.6197 24.6775 12.8021 25.1302 12.0838C25.3723 11.7 25.6197 11.2602 25.7943 10.7378C25.7948 10.7356 25.7954 10.7334 25.7959 10.7312L25.8122 10.684C26.421 8.85948 26.6667 6.37382 26.6667 4.58378C26.6682 4.44212 26.6456 4.30122 26.5999 4.16712ZM18.2275 13.7277L25.9033 18.3338H14.6729L18.2275 13.7277ZM11.6667 14.5838C12.4953 14.5838 13.2147 14.8847 13.859 15.2967L11.5153 18.3338H7.52116C7.72781 16.2166 9.49141 14.5838 11.6667 14.5838ZM5 20.8338H30.3662H33.5335C33.6746 20.8582 33.8189 20.8582 33.96 20.8338H35V25.0005H5V20.8338ZM6.66667 27.5005H33.3333V32.9171C33.3333 34.5422 32.0417 35.8338 30.4167 35.8338H9.58333C7.95828 35.8338 6.66667 34.5422 6.66667 32.9171V27.5005Z" fill="black"/>
</svg>
