<svg width="19" height="19" viewBox="0 0 19 19" fill="none" xmlns="http://www.w3.org/2000/svg">
<path fill-rule="evenodd" clip-rule="evenodd" d="M1.78125 16.625H17.8125V15.4375H2.375V0H1.1875V16.0312L1.78125 16.625ZM3.5625 13.6562V4.15625L4.15625 3.5625H6.53125L7.125 4.15625V13.6562L6.53125 14.25H4.15625L3.5625 13.6562ZM5.9375 13.0625V4.75H4.75V13.0625H5.9375ZM13.0625 1.78125V13.6562L13.6562 14.25H16.0312L16.625 13.6562V1.78125L16.0312 1.1875H13.6562L13.0625 1.78125ZM15.4375 2.375V13.0625H14.25V2.375H15.4375ZM8.3125 13.6562V6.53125L8.90625 5.9375H11.2812L11.875 6.53125V13.6562L11.2812 14.25H8.90625L8.3125 13.6562ZM10.6875 13.0625V7.125H9.5V13.0625H10.6875Z" fill="black"/>
</svg>
