<svg width="20" height="20" viewBox="0 0 20 20" fill="none" xmlns="http://www.w3.org/2000/svg">
<path d="M10.3431 1.25801C6.28733 1.06709 2.91797 4.31522 2.91797 8.3332V10.2082V13.1249C2.91797 14.3218 3.86206 15.2875 5.0363 15.3815C5.1318 17.0159 6.46912 18.3332 8.1263 18.3332H8.54867C8.73906 18.5845 9.03756 18.7499 9.3763 18.7499H10.6263C11.2005 18.7499 11.668 18.2828 11.668 17.7082C11.668 17.1336 11.2005 16.6665 10.6263 16.6665H9.3763C9.03756 16.6665 8.73906 16.8319 8.54867 17.0832H8.1263C7.15727 17.0832 6.39967 16.3548 6.29281 15.4165H7.29297C7.45872 15.4165 7.61769 15.3507 7.73489 15.2335C7.8521 15.1163 7.91795 14.9573 7.91797 14.7915V10.2082C7.91795 10.0424 7.8521 9.88349 7.73489 9.76628C7.61769 9.64907 7.45872 9.58322 7.29297 9.5832H4.16797V8.3332C4.16797 5.01035 6.92197 2.34813 10.2837 2.50638C13.4147 2.6536 15.8346 5.35821 15.8346 8.51549V9.5832H12.7096C12.5439 9.58322 12.3849 9.64907 12.2677 9.76628C12.1505 9.88349 12.0847 10.0424 12.0846 10.2082V14.7915C12.0847 14.9573 12.1505 15.1163 12.2677 15.2335C12.3849 15.3507 12.5439 15.4165 12.7096 15.4165H14.793C16.0512 15.4165 17.0846 14.3831 17.0846 13.1249V10.2082V8.51549C17.0846 4.71778 14.1596 1.43746 10.3431 1.25801ZM4.16797 10.8332H6.66797V14.1665H5.20964C4.62704 14.1665 4.16797 13.7075 4.16797 13.1249V10.8332ZM13.3346 10.8332H15.8346V13.1249C15.8346 13.7075 15.3756 14.1665 14.793 14.1665H13.3346V10.8332Z" fill="black"/>
</svg>
