<svg width="20" height="20" viewBox="0 0 20 20" fill="none" xmlns="http://www.w3.org/2000/svg">
<path d="M10.0013 1.66699C5.40633 1.66699 1.66797 5.40536 1.66797 10.0003C1.66797 14.5953 5.40633 18.3337 10.0013 18.3337C14.5963 18.3337 18.3346 14.5953 18.3346 10.0003C18.3346 5.40536 14.5963 1.66699 10.0013 1.66699ZM10.0013 2.91699C13.9207 2.91699 17.0846 6.08091 17.0846 10.0003C17.0846 13.9197 13.9207 17.0837 10.0013 17.0837C6.08188 17.0837 2.91797 13.9197 2.91797 10.0003C2.91797 6.08091 6.08188 2.91699 10.0013 2.91699ZM10.0013 5.83366C9.78029 5.83366 9.56833 5.92146 9.41205 6.07774C9.25577 6.23402 9.16797 6.44598 9.16797 6.66699C9.16797 6.88801 9.25577 7.09997 9.41205 7.25625C9.56833 7.41253 9.78029 7.50033 10.0013 7.50033C10.2223 7.50033 10.4343 7.41253 10.5906 7.25625C10.7468 7.09997 10.8346 6.88801 10.8346 6.66699C10.8346 6.44598 10.7468 6.23402 10.5906 6.07774C10.4343 5.92146 10.2223 5.83366 10.0013 5.83366ZM9.99154 8.74137C9.82592 8.74396 9.6681 8.81218 9.55274 8.93105C9.43739 9.04991 9.37393 9.2097 9.3763 9.37533V13.9587C9.37513 14.0415 9.39043 14.1237 9.42132 14.2006C9.4522 14.2774 9.49805 14.3474 9.5562 14.4063C9.61436 14.4653 9.68365 14.5122 9.76006 14.5441C9.83647 14.5761 9.91847 14.5926 10.0013 14.5926C10.0841 14.5926 10.1661 14.5761 10.2425 14.5441C10.319 14.5122 10.3882 14.4653 10.4464 14.4063C10.5046 14.3474 10.5504 14.2774 10.5813 14.2006C10.6122 14.1237 10.6275 14.0415 10.6263 13.9587V9.37533C10.6275 9.29167 10.6119 9.20863 10.5804 9.13112C10.5489 9.05361 10.5022 8.98321 10.443 8.92409C10.3838 8.86497 10.3134 8.81834 10.2358 8.78695C10.1582 8.75557 10.0752 8.74007 9.99154 8.74137Z" fill="black"/>
</svg>
