<svg width="512" height="512" viewBox="0 0 512 512" fill="none" xmlns="http://www.w3.org/2000/svg">
<path d="M256.501 84.2581C312.599 84.2581 319.244 84.4724 341.4 85.4832C361.884 86.4181 373.008 89.8399 380.412 92.7172C389.538 96.0852 397.792 101.456 404.569 108.434C411.547 115.211 416.918 123.465 420.286 132.591C423.163 139.994 426.586 151.119 427.52 171.603C428.531 193.758 428.745 200.402 428.745 256.503C428.745 312.603 428.531 319.246 427.52 341.402C426.585 361.886 423.162 373.01 420.286 380.414C416.791 389.475 411.437 397.704 404.57 404.572C397.702 411.439 389.473 416.793 380.412 420.288C373.009 423.165 361.884 426.588 341.4 427.522C319.249 428.533 312.605 428.747 256.501 428.747C200.396 428.747 193.754 428.533 171.601 427.522C151.117 426.587 139.993 423.164 132.589 420.288C123.463 416.92 115.209 411.549 108.432 404.571C101.454 397.794 96.0833 389.54 92.7152 380.414C89.8379 373.011 86.4152 361.886 85.4812 341.402C84.4704 319.248 84.2561 312.603 84.2561 256.503C84.2561 200.402 84.4704 193.759 85.4812 171.603C86.4161 151.119 89.8379 139.995 92.7152 132.591C96.0836 123.465 101.455 115.21 108.433 108.433C115.21 101.455 123.465 96.0844 132.59 92.7163C139.994 89.8391 151.118 86.4164 171.603 85.4824C193.757 84.4716 200.402 84.2572 256.502 84.2572M256.502 46.4019C199.443 46.4019 192.285 46.6437 169.88 47.6662C147.516 48.687 132.244 52.2381 118.881 57.4321C104.862 62.7076 92.1625 70.9775 81.6682 81.6652C70.9781 92.1589 62.7059 104.858 57.4285 118.878C52.2386 132.242 48.6875 147.514 47.6708 169.877C46.6442 192.283 46.4023 199.44 46.4023 256.5C46.4023 313.56 46.6442 320.717 47.6708 343.123C48.6916 365.486 52.2427 380.758 57.4368 394.122C62.7123 408.14 70.9822 420.84 81.6699 431.334C92.1641 442.022 104.863 450.292 118.882 455.567C132.247 460.761 147.519 464.312 169.881 465.333C192.29 466.356 199.445 466.597 256.504 466.597C313.563 466.597 320.721 466.356 343.126 465.333C365.49 464.312 380.762 460.761 394.125 455.567C408.082 450.169 420.757 441.915 431.338 431.334C441.919 420.753 450.173 408.078 455.571 394.122C460.765 380.757 464.316 365.485 465.337 343.123C466.359 320.713 466.601 313.559 466.601 256.5C466.601 199.441 466.359 192.283 465.337 169.877C464.316 147.514 460.765 132.242 455.571 118.878C450.295 104.86 442.026 92.1603 431.338 81.6661C420.843 70.9762 408.143 62.7046 394.123 57.428C380.758 52.2381 365.486 48.687 343.123 47.6703C320.717 46.6437 313.56 46.4019 256.501 46.4019H256.502Z" fill="black"/>
<path d="M256.502 148.612C235.163 148.612 214.304 154.939 196.562 166.794C178.82 178.649 164.992 195.499 156.826 215.213C148.66 234.927 146.523 256.62 150.686 277.548C154.849 298.476 165.125 317.7 180.213 332.789C195.302 347.877 214.525 358.153 235.454 362.316C256.382 366.478 278.075 364.342 297.789 356.176C317.503 348.01 334.353 334.182 346.208 316.44C358.063 298.698 364.39 277.839 364.39 256.5C364.39 227.886 353.023 200.445 332.79 180.212C312.557 159.979 285.115 148.612 256.502 148.612V148.612ZM256.502 326.532C242.651 326.532 229.111 322.425 217.594 314.729C206.078 307.034 197.101 296.096 191.801 283.3C186.501 270.503 185.114 256.422 187.816 242.837C190.518 229.252 197.188 216.774 206.983 206.98C216.777 197.186 229.255 190.516 242.84 187.814C256.425 185.111 270.506 186.498 283.303 191.799C296.1 197.1 307.037 206.076 314.732 217.593C322.427 229.109 326.535 242.649 326.535 256.5C326.534 275.074 319.156 292.887 306.022 306.02C292.889 319.154 275.075 326.532 256.502 326.532Z" fill="black"/>
<path d="M368.653 169.56C382.577 169.56 393.864 158.273 393.864 144.349C393.864 130.425 382.577 119.138 368.653 119.138C354.729 119.138 343.441 130.425 343.441 144.349C343.441 158.273 354.729 169.56 368.653 169.56Z" fill="black"/>
</svg>
