<svg width="24" height="24" viewBox="0 0 24 24" fill="none" xmlns="http://www.w3.org/2000/svg">
<path d="M5.75 3C4.24011 3 3 4.24011 3 5.75V18.25C3 19.7599 4.24011 21 5.75 21H14.75C16.2599 21 17.5 19.7599 17.5 18.25C17.5014 18.1506 17.483 18.0519 17.446 17.9597C17.4089 17.8675 17.3539 17.7836 17.2841 17.7128C17.2143 17.642 17.1312 17.5858 17.0395 17.5474C16.9478 17.5091 16.8494 17.4893 16.75 17.4893C16.6506 17.4893 16.5522 17.5091 16.4605 17.5474C16.3688 17.5858 16.2857 17.642 16.2159 17.7128C16.1461 17.7836 16.0911 17.8675 16.054 17.9597C16.017 18.0519 15.9986 18.1506 16 18.25C16 18.9491 15.4491 19.5 14.75 19.5H5.75C5.05089 19.5 4.5 18.9491 4.5 18.25V5.75C4.5 5.05089 5.05089 4.5 5.75 4.5H14.75C15.4491 4.5 16 5.05089 16 5.75C15.9986 5.84938 16.017 5.94806 16.054 6.04028C16.0911 6.13251 16.1461 6.21645 16.2159 6.28723C16.2857 6.358 16.3688 6.41421 16.4605 6.45257C16.5522 6.49093 16.6506 6.51068 16.75 6.51068C16.8494 6.51068 16.9478 6.49093 17.0395 6.45257C17.1312 6.41421 17.2143 6.358 17.2841 6.28723C17.3539 6.21645 17.4089 6.13251 17.446 6.04028C17.483 5.94806 17.5014 5.84938 17.5 5.75C17.5 4.24011 16.2599 3 14.75 3H5.75ZM16.7422 7.74219C16.5929 7.74222 16.4471 7.78679 16.3233 7.87019C16.1995 7.95358 16.1034 8.07202 16.0473 8.21033C15.9912 8.34865 15.9776 8.50056 16.0084 8.64662C16.0391 8.79269 16.1127 8.92627 16.2197 9.03027L18.4395 11.25H7.75C7.65062 11.2486 7.55194 11.267 7.45972 11.304C7.36749 11.3411 7.28355 11.3961 7.21277 11.4659C7.142 11.5357 7.08579 11.6188 7.04743 11.7105C7.00907 11.8022 6.98932 11.9006 6.98932 12C6.98932 12.0994 7.00907 12.1978 7.04743 12.2895C7.08579 12.3812 7.142 12.4643 7.21277 12.5341C7.28355 12.6039 7.36749 12.6589 7.45972 12.696C7.55194 12.733 7.65062 12.7514 7.75 12.75H18.4395L16.2197 14.9697C16.1477 15.0388 16.0903 15.1216 16.0507 15.2132C16.0111 15.3048 15.9902 15.4034 15.9892 15.5032C15.9882 15.6029 16.0071 15.7019 16.0448 15.7943C16.0825 15.8867 16.1383 15.9706 16.2088 16.0412C16.2794 16.1117 16.3633 16.1675 16.4557 16.2052C16.5481 16.2429 16.6471 16.2618 16.7468 16.2608C16.8466 16.2598 16.9452 16.2389 17.0368 16.1993C17.1284 16.1597 17.2112 16.1023 17.2803 16.0303L20.7803 12.5303C20.9209 12.3896 20.9999 12.1989 20.9999 12C20.9999 11.8011 20.9209 11.6104 20.7803 11.4697L17.2803 7.96973C17.2104 7.89773 17.1267 7.8405 17.0343 7.80142C16.9419 7.76233 16.8425 7.74219 16.7422 7.74219Z" fill="#C4C4C4"/>
</svg>
