<svg width="30" height="30" viewBox="0 0 30 30" fill="none" xmlns="http://www.w3.org/2000/svg">
<path d="M7.8125 2.5C6.27031 2.5 5 3.77031 5 5.3125V13.7817C4.29367 13.9298 3.75 14.5672 3.75 15.3125V22.1875C3.75 22.9328 4.29367 23.5702 5 23.7183V24.6875C5 26.2297 6.27031 27.5 7.8125 27.5H22.1875C23.7297 27.5 25 26.2297 25 24.6875V23.7183C25.7063 23.5702 26.25 22.9328 26.25 22.1875V15.3125C26.25 14.5672 25.7063 13.9298 25 13.7817V11.5625C25 11.3139 24.9012 11.0755 24.7253 10.8997L24.7156 10.8899L16.6003 2.77466C16.4245 2.59884 16.1861 2.50005 15.9375 2.5H7.8125ZM7.8125 4.375H15V9.6875C15 11.2297 16.2703 12.5 17.8125 12.5H23.125V13.75H6.875V5.3125C6.875 4.78344 7.28344 4.375 7.8125 4.375ZM16.875 5.70068L21.7993 10.625H17.8125C17.2834 10.625 16.875 10.2166 16.875 9.6875V5.70068ZM5.625 15.625H24.375V21.875H5.625V15.625ZM10 16.25C9.655 16.25 9.375 16.53 9.375 16.875V20.625C9.375 20.97 9.655 21.25 10 21.25H11.875C12.22 21.25 12.5 20.97 12.5 20.625C12.5 20.28 12.22 20 11.875 20H10.625V16.875C10.625 16.53 10.345 16.25 10 16.25ZM19.5581 16.25C18.4237 16.25 17.5 17.3712 17.5 18.75C17.5 20.1288 18.4225 21.25 19.5569 21.25C20.4581 21.25 21.0035 20.6402 21.1841 20.2795C21.2272 20.1933 21.25 20.0969 21.25 20V19.375C21.25 19.03 20.97 18.75 20.625 18.75C20.28 18.75 20 19.03 20 19.375V19.8071C19.9219 19.8934 19.7806 20 19.5581 20C19.1281 20 18.75 19.4156 18.75 18.75C18.75 18.0844 19.1269 17.5 19.5569 17.5C19.8919 17.5 20.044 17.742 20.0659 17.7795C20.2203 18.0883 20.5952 18.2147 20.9045 18.0591C21.2133 17.9047 21.3385 17.5292 21.1841 17.2205C21.0035 16.8598 20.4594 16.25 19.5581 16.25ZM14.5691 16.2537C13.3641 16.3112 12.438 17.4781 12.5037 18.855C12.5693 20.2319 13.6021 21.3051 14.8071 21.2476C16.0121 21.1907 16.9382 20.0231 16.8726 18.6462C16.8069 17.2694 15.7741 16.1962 14.5691 16.2537ZM14.6289 17.5024C15.1364 17.4787 15.5919 18.0298 15.6238 18.7061C15.6563 19.3829 15.2548 19.9744 14.7473 19.9988C14.2398 20.0232 13.7849 19.472 13.7524 18.7952C13.7199 18.1183 14.1214 17.5268 14.6289 17.5024ZM6.875 23.75H23.125V24.6875C23.125 25.2166 22.7166 25.625 22.1875 25.625H7.8125C7.28344 25.625 6.875 25.2166 6.875 24.6875V23.75Z" fill="#7A7A7A"/>
</svg>
