<svg width="37" height="37" viewBox="0 0 37 37" fill="none" xmlns="http://www.w3.org/2000/svg">
<path d="M18.4987 0.583496C8.61945 0.583496 0.582031 8.62091 0.582031 18.5002C0.582031 28.3794 8.61945 36.4168 18.4987 36.4168C28.3779 36.4168 36.4154 28.3794 36.4154 18.5002C36.4154 8.62091 28.3779 0.583496 18.4987 0.583496ZM17.1549 9.98975C17.1549 9.2471 17.7561 8.646 18.4987 8.646C19.2413 8.646 19.8424 9.2471 19.8424 9.98975V20.7397C19.8424 21.4824 19.2413 22.0835 18.4987 22.0835C17.7561 22.0835 17.1549 21.4824 17.1549 20.7397V9.98975ZM18.4987 28.3543C17.5088 28.3543 16.707 27.5526 16.707 26.5627C16.707 25.5728 17.5088 24.771 18.4987 24.771C19.4886 24.771 20.2904 25.5728 20.2904 26.5627C20.2904 27.5526 19.4886 28.3543 18.4987 28.3543Z" fill="white"/>
</svg>
