<svg width="40" height="40" viewBox="0 0 40 40" fill="none" xmlns="http://www.w3.org/2000/svg">
<path d="M19.9987 3.33301C10.8088 3.33301 3.33203 10.8097 3.33203 19.9997C3.33203 29.1896 10.8088 36.6663 19.9987 36.6663C29.1886 36.6663 36.6654 29.1896 36.6654 19.9997C36.6654 10.8097 29.1886 3.33301 19.9987 3.33301ZM19.9987 5.83301C27.8375 5.83301 34.1654 12.1608 34.1654 19.9997C34.1654 27.8385 27.8375 34.1663 19.9987 34.1663C12.1599 34.1663 5.83203 27.8385 5.83203 19.9997C5.83203 12.1608 12.1599 5.83301 19.9987 5.83301ZM19.9792 10.8151C19.6479 10.8203 19.3323 10.9567 19.1016 11.1944C18.8709 11.4322 18.7439 11.7518 18.7487 12.083V22.083C18.7464 22.2486 18.777 22.4131 18.8387 22.5668C18.9005 22.7205 18.9922 22.8604 19.1085 22.9784C19.2248 23.0963 19.3634 23.19 19.5162 23.254C19.669 23.3179 19.833 23.3508 19.9987 23.3508C20.1644 23.3508 20.3284 23.3179 20.4812 23.254C20.634 23.19 20.7726 23.0963 20.8889 22.9784C21.0052 22.8604 21.0969 22.7205 21.1587 22.5668C21.2204 22.4131 21.251 22.2486 21.2487 22.083V12.083C21.2511 11.9157 21.2199 11.7496 21.1569 11.5946C21.0939 11.4396 21.0005 11.2988 20.8821 11.1805C20.7637 11.0623 20.6228 10.969 20.4677 10.9063C20.3126 10.8435 20.1465 10.8125 19.9792 10.8151ZM19.9987 25.833C19.5567 25.833 19.1327 26.0086 18.8202 26.3212C18.5076 26.6337 18.332 27.0576 18.332 27.4997C18.332 27.9417 18.5076 28.3656 18.8202 28.6782C19.1327 28.9907 19.5567 29.1663 19.9987 29.1663C20.4407 29.1663 20.8646 28.9907 21.1772 28.6782C21.4898 28.3656 21.6654 27.9417 21.6654 27.4997C21.6654 27.0576 21.4898 26.6337 21.1772 26.3212C20.8646 26.0086 20.4407 25.833 19.9987 25.833Z" fill="black"/>
</svg>
