<svg width="30" height="30" viewBox="0 0 30 30" fill="none" xmlns="http://www.w3.org/2000/svg">
<path d="M7.8125 2.5C6.27031 2.5 5 3.77031 5 5.3125V24.6875C5 26.2297 6.27031 27.5 7.8125 27.5H22.1875C23.7297 27.5 25 26.2297 25 24.6875V11.5625C25 11.3139 24.9012 11.0755 24.7253 10.8997L24.7156 10.8899L16.6003 2.77466C16.4245 2.59884 16.1861 2.50005 15.9375 2.5H7.8125ZM7.8125 4.375H15V9.6875C15 11.2297 16.2703 12.5 17.8125 12.5H23.125V24.6875C23.125 25.2166 22.7166 25.625 22.1875 25.625H7.8125C7.28344 25.625 6.875 25.2166 6.875 24.6875V5.3125C6.875 4.78344 7.28344 4.375 7.8125 4.375ZM16.875 5.70068L21.7993 10.625H17.8125C17.2834 10.625 16.875 10.2166 16.875 9.6875V5.70068ZM15.4028 14.3774C15.3416 14.3826 15.2805 14.3953 15.2209 14.4153L13.3459 15.0403C12.9372 15.1765 12.7165 15.6191 12.8528 16.0291C12.989 16.4372 13.4309 16.6572 13.8416 16.5222L14.6875 16.2402V21.0938C14.6875 21.525 15.0375 21.875 15.4688 21.875C15.9 21.875 16.25 21.525 16.25 21.0938V15.1562C16.25 14.905 16.129 14.6696 15.9253 14.5227C15.772 14.4121 15.5865 14.3619 15.4028 14.3774Z" fill="#7A7A7A"/>
</svg>
