<svg width="20" height="20" viewBox="0 0 20 20" fill="none" xmlns="http://www.w3.org/2000/svg">
<path d="M3.125 2.08301C2.09687 2.08301 1.25 2.92988 1.25 3.95801V4.79134C1.25 5.35951 1.7235 5.83301 2.29167 5.83301H3.75V15.208C3.75 16.6963 4.97003 17.9163 6.45833 17.9163H16.875C16.9094 17.9156 16.9437 17.9121 16.9775 17.9058C17.9579 17.8507 18.75 17.0344 18.75 16.0413V15.208C18.75 14.6398 18.2765 14.1663 17.7083 14.1663H16.25V3.95801C16.25 2.92988 15.4031 2.08301 14.375 2.08301H3.125ZM3.125 3.33301H12.6278C12.5561 3.53071 12.5 3.73693 12.5 3.95801V4.58301H4.47754C4.41044 4.57199 4.342 4.57199 4.2749 4.58301H2.5V3.95801C2.5 3.6053 2.77229 3.33301 3.125 3.33301ZM14.375 3.33301C14.7277 3.33301 15 3.6053 15 3.95801V14.6888C14.989 14.7559 14.989 14.8243 15 14.8914V16.0413C15 16.2624 15.0561 16.4686 15.1278 16.6663H6.45833C5.64581 16.6663 5 16.0205 5 15.208V5.83301H12.7083C13.2765 5.83301 13.75 5.35951 13.75 4.79134V3.95801C13.75 3.6053 14.0223 3.33301 14.375 3.33301ZM7.29167 7.49967C7.20885 7.4985 7.12662 7.5138 7.04976 7.54469C6.97291 7.57557 6.90296 7.62142 6.84398 7.67957C6.785 7.73773 6.73816 7.80702 6.70619 7.88343C6.67423 7.95984 6.65777 8.04185 6.65777 8.12467C6.65777 8.2075 6.67423 8.28951 6.70619 8.36592C6.73816 8.44233 6.785 8.51162 6.84398 8.56977C6.90296 8.62793 6.97291 8.67378 7.04976 8.70466C7.12662 8.73554 7.20885 8.75085 7.29167 8.74967H12.7083C12.7912 8.75085 12.8734 8.73554 12.9502 8.70466C13.0271 8.67378 13.097 8.62793 13.156 8.56977C13.215 8.51162 13.2618 8.44233 13.2938 8.36592C13.3258 8.28951 13.3422 8.2075 13.3422 8.12467C13.3422 8.04185 13.3258 7.95984 13.2938 7.88343C13.2618 7.80702 13.215 7.73773 13.156 7.67957C13.097 7.62142 13.0271 7.57557 12.9502 7.54469C12.8734 7.5138 12.7912 7.4985 12.7083 7.49967H7.29167ZM7.29167 10.4163C7.20885 10.4152 7.12662 10.4305 7.04976 10.4614C6.97291 10.4922 6.90296 10.5381 6.84398 10.5962C6.785 10.6544 6.73816 10.7237 6.70619 10.8001C6.67423 10.8765 6.65777 10.9585 6.65777 11.0413C6.65777 11.1242 6.67423 11.2062 6.70619 11.2826C6.73816 11.359 6.785 11.4283 6.84398 11.4864C6.90296 11.5446 6.97291 11.5904 7.04976 11.6213C7.12662 11.6522 7.20885 11.6675 7.29167 11.6663H12.7083C12.7912 11.6675 12.8734 11.6522 12.9502 11.6213C13.0271 11.5904 13.097 11.5446 13.156 11.4864C13.215 11.4283 13.2618 11.359 13.2938 11.2826C13.3258 11.2062 13.3422 11.1242 13.3422 11.0413C13.3422 10.9585 13.3258 10.8765 13.2938 10.8001C13.2618 10.7237 13.215 10.6544 13.156 10.5962C13.097 10.5381 13.0271 10.4922 12.9502 10.4614C12.8734 10.4305 12.7912 10.4152 12.7083 10.4163H7.29167ZM7.29167 13.333C7.20885 13.3318 7.12662 13.3471 7.04976 13.378C6.97291 13.4089 6.90296 13.4548 6.84398 13.5129C6.785 13.5711 6.73816 13.6404 6.70619 13.7168C6.67423 13.7932 6.65777 13.8752 6.65777 13.958C6.65777 14.0408 6.67423 14.1228 6.70619 14.1992C6.73816 14.2757 6.785 14.345 6.84398 14.4031C6.90296 14.4613 6.97291 14.5071 7.04976 14.538C7.12662 14.5689 7.20885 14.5842 7.29167 14.583H12.7083C12.7912 14.5842 12.8734 14.5689 12.9502 14.538C13.0271 14.5071 13.097 14.4613 13.156 14.4031C13.215 14.345 13.2618 14.2757 13.2938 14.1992C13.3258 14.1228 13.3422 14.0408 13.3422 13.958C13.3422 13.8752 13.3258 13.7932 13.2938 13.7168C13.2618 13.6404 13.215 13.5711 13.156 13.5129C13.097 13.4548 13.0271 13.4089 12.9502 13.378C12.8734 13.3471 12.7912 13.3318 12.7083 13.333H7.29167ZM16.25 15.4163H17.5V16.0413C17.5 16.394 17.2277 16.6663 16.875 16.6663C16.5223 16.6663 16.25 16.394 16.25 16.0413V15.4163Z" fill="black"/>
</svg>
