<svg width="47" height="48" viewBox="0 0 47 48" fill="none" xmlns="http://www.w3.org/2000/svg">
<g filter="url(#filter0_d_1606_612)">
<path d="M17.1654 0.666992C12.5778 0.666992 8.83203 4.41276 8.83203 9.00032C8.83203 13.5879 12.5778 17.3337 17.1654 17.3337C21.7529 17.3337 25.4987 13.5879 25.4987 9.00032C25.4987 4.41276 21.7529 0.666992 17.1654 0.666992ZM17.1654 3.16699C20.4018 3.16699 22.9987 5.76386 22.9987 9.00032C22.9987 12.2368 20.4018 14.8337 17.1654 14.8337C13.9289 14.8337 11.332 12.2368 11.332 9.00032C11.332 5.76386 13.9289 3.16699 17.1654 3.16699ZM8.18424 20.667C6.47341 20.667 5.08203 22.1541 5.08203 23.9824V25.2503C5.08203 27.9845 6.49486 30.3606 9.06152 31.9398C11.2207 33.2689 14.0987 34.0003 17.1654 34.0003C19.7745 34.0003 22.469 33.4438 24.6523 32.2946C24.1565 31.6288 23.758 30.8891 23.4772 30.0924C21.6855 31.0416 19.3879 31.5003 17.1654 31.5003C12.5495 31.5003 7.58203 29.5445 7.58203 25.2503V23.9824C7.58203 23.5399 7.85758 23.167 8.18424 23.167H24.1266C24.6883 22.1995 25.438 21.3582 26.3271 20.6865C26.2655 20.6832 26.209 20.667 26.1465 20.667H8.18424ZM31.332 20.667C27.6562 20.667 24.6654 23.6578 24.6654 27.3337C24.6654 31.0095 27.6562 34.0003 31.332 34.0003C32.7195 34.0003 34.0072 33.5731 35.0755 32.8447L39.1982 36.9674C39.4424 37.2124 39.762 37.3337 40.082 37.3337C40.402 37.3337 40.7217 37.2116 40.9658 36.9674C41.4533 36.4791 41.4533 35.6882 40.9658 35.1999L36.8447 31.0771C37.5722 30.0088 37.9987 28.7212 37.9987 27.3337C37.9987 23.6578 35.0079 20.667 31.332 20.667ZM31.332 23.167C33.6295 23.167 35.4987 25.0362 35.4987 27.3337C35.4987 29.6312 33.6295 31.5003 31.332 31.5003C29.0345 31.5003 27.1654 29.6312 27.1654 27.3337C27.1654 25.0362 29.0345 23.167 31.332 23.167Z" fill="white"/>
</g>
<defs>
<filter id="filter0_d_1606_612" x="0.0820312" y="0.666992" width="46.25" height="46.667" filterUnits="userSpaceOnUse" color-interpolation-filters="sRGB">
<feFlood flood-opacity="0" result="BackgroundImageFix"/>
<feColorMatrix in="SourceAlpha" type="matrix" values="0 0 0 0 0 0 0 0 0 0 0 0 0 0 0 0 0 0 127 0" result="hardAlpha"/>
<feOffset dy="5"/>
<feGaussianBlur stdDeviation="2.5"/>
<feComposite in2="hardAlpha" operator="out"/>
<feColorMatrix type="matrix" values="0 0 0 0 0 0 0 0 0 0 0 0 0 0 0 0 0 0 0.1 0"/>
<feBlend mode="normal" in2="BackgroundImageFix" result="effect1_dropShadow_1606_612"/>
<feBlend mode="normal" in="SourceGraphic" in2="effect1_dropShadow_1606_612" result="shape"/>
</filter>
</defs>
</svg>
