<svg width="43" height="46" viewBox="0 0 43 46" fill="none" xmlns="http://www.w3.org/2000/svg">
<g filter="url(#filter0_d_1606_613)">
<path d="M19.0013 0.333008C14.4137 0.333008 10.668 4.07878 10.668 8.66634C10.668 13.2539 14.4137 16.9997 19.0013 16.9997C23.5889 16.9997 27.3346 13.2539 27.3346 8.66634C27.3346 4.07878 23.5889 0.333008 19.0013 0.333008ZM19.0013 2.83301C22.2378 2.83301 24.8346 5.42987 24.8346 8.66634C24.8346 11.9028 22.2378 14.4997 19.0013 14.4997C15.7648 14.4997 13.168 11.9028 13.168 8.66634C13.168 5.42987 15.7648 2.83301 19.0013 2.83301ZM27.3379 16.9883C27.0133 16.9977 26.7051 17.1332 26.4785 17.3659L19.1657 24.6641C16.7349 27.0938 16.7355 31.0717 19.1657 33.502C20.3805 34.7168 21.9873 35.333 23.5846 35.333C25.1819 35.333 26.7881 34.718 28.0036 33.5036L36.2409 25.2809C37.6965 23.8253 37.6965 21.4257 36.2409 19.9701C34.7847 18.5139 32.3853 18.5138 30.93 19.9717L22.7057 28.2057C22.5859 28.321 22.4902 28.4591 22.4244 28.6118C22.3586 28.7645 22.3239 28.9288 22.3223 29.0951C22.3208 29.2614 22.3524 29.4264 22.4154 29.5803C22.4784 29.7342 22.5715 29.874 22.6892 29.9915C22.8069 30.109 22.9469 30.2018 23.1009 30.2645C23.255 30.3272 23.4199 30.3586 23.5862 30.3567C23.7525 30.3549 23.9168 30.3199 24.0694 30.2538C24.222 30.1876 24.3599 30.0917 24.4749 29.9717L32.6992 21.7393C33.1989 21.2387 33.9728 21.2388 34.4733 21.7393C34.9743 22.2403 34.9743 23.0107 34.4733 23.5117L26.2376 31.7344C25.4998 32.4716 24.5457 32.833 23.5846 32.833C22.6236 32.833 21.6701 32.4712 20.9333 31.7344C19.4581 30.2598 19.4588 27.9082 20.9333 26.4333V26.4316L28.2445 19.1351C28.4253 18.9597 28.5489 18.7337 28.599 18.4868C28.6492 18.2399 28.6236 17.9836 28.5256 17.7516C28.4276 17.5195 28.2617 17.3224 28.0498 17.1862C27.8379 17.05 27.5897 16.981 27.3379 16.9883ZM8.9834 20.333C7.15506 20.333 5.66797 21.8201 5.66797 23.6484V24.9163C5.66797 27.6763 7.2385 30.0618 10.0902 31.6351C12.0035 32.6909 14.4359 33.3568 17.0726 33.5784C16.5126 32.7718 16.116 31.8731 15.891 30.9206C11.7035 30.2531 8.16797 28.2205 8.16797 24.9163V23.6484C8.16797 23.1984 8.53257 22.833 8.9834 22.833H18.64L21.1449 20.333H8.9834Z" fill="white"/>
</g>
<defs>
<filter id="filter0_d_1606_613" x="0.667969" y="0.333008" width="41.6641" height="45" filterUnits="userSpaceOnUse" color-interpolation-filters="sRGB">
<feFlood flood-opacity="0" result="BackgroundImageFix"/>
<feColorMatrix in="SourceAlpha" type="matrix" values="0 0 0 0 0 0 0 0 0 0 0 0 0 0 0 0 0 0 127 0" result="hardAlpha"/>
<feOffset dy="5"/>
<feGaussianBlur stdDeviation="2.5"/>
<feComposite in2="hardAlpha" operator="out"/>
<feColorMatrix type="matrix" values="0 0 0 0 0 0 0 0 0 0 0 0 0 0 0 0 0 0 0.1 0"/>
<feBlend mode="normal" in2="BackgroundImageFix" result="effect1_dropShadow_1606_613"/>
<feBlend mode="normal" in="SourceGraphic" in2="effect1_dropShadow_1606_613" result="shape"/>
</filter>
</defs>
</svg>
