<svg width="40" height="40" viewBox="0 0 40 40" fill="none" xmlns="http://www.w3.org/2000/svg">
<g filter="url(#filter0_d_1606_616)">
<path d="M8.75 0C6.69375 0 5 1.69375 5 3.75V9.58333C5 11.6396 6.69375 13.3333 8.75 13.3333H14.5833C16.6396 13.3333 18.3333 11.6396 18.3333 9.58333V3.75C18.3333 1.69375 16.6396 0 14.5833 0H8.75ZM25.4167 0C23.3604 0 21.6667 1.69375 21.6667 3.75V9.58333C21.6667 11.6396 23.3604 13.3333 25.4167 13.3333H31.25C33.3062 13.3333 35 11.6396 35 9.58333V3.75C35 1.69375 33.3062 0 31.25 0H25.4167ZM8.75 2.5H14.5833C15.2887 2.5 15.8333 3.04458 15.8333 3.75V9.58333C15.8333 10.2887 15.2887 10.8333 14.5833 10.8333H8.75C8.04458 10.8333 7.5 10.2887 7.5 9.58333V3.75C7.5 3.04458 8.04458 2.5 8.75 2.5ZM25.4167 2.5H31.25C31.9554 2.5 32.5 3.04458 32.5 3.75V9.58333C32.5 10.2887 31.9554 10.8333 31.25 10.8333H25.4167C24.7113 10.8333 24.1667 10.2887 24.1667 9.58333V3.75C24.1667 3.04458 24.7113 2.5 25.4167 2.5ZM10 5V8.33333H13.3333V5H10ZM26.6667 5V8.33333H30V5H26.6667ZM8.75 16.6667C6.69375 16.6667 5 18.3604 5 20.4167V26.25C5 28.3062 6.69375 30 8.75 30H14.5833C16.6396 30 18.3333 28.3062 18.3333 26.25V20.4167C18.3333 18.3604 16.6396 16.6667 14.5833 16.6667H8.75ZM21.6667 16.6667V21.25H26.25V16.6667H21.6667ZM26.25 21.25V25.4167H30.4167V21.25H26.25ZM30.4167 21.25H35V16.6667H30.4167V21.25ZM30.4167 25.4167V30H35V25.4167H30.4167ZM26.25 25.4167H21.6667V30H26.25V25.4167ZM8.75 19.1667H14.5833C15.2887 19.1667 15.8333 19.7113 15.8333 20.4167V26.25C15.8333 26.9554 15.2887 27.5 14.5833 27.5H8.75C8.04458 27.5 7.5 26.9554 7.5 26.25V20.4167C7.5 19.7113 8.04458 19.1667 8.75 19.1667ZM10 21.6667V25H13.3333V21.6667H10Z" fill="white"/>
</g>
<defs>
<filter id="filter0_d_1606_616" x="0" y="0" width="40" height="40" filterUnits="userSpaceOnUse" color-interpolation-filters="sRGB">
<feFlood flood-opacity="0" result="BackgroundImageFix"/>
<feColorMatrix in="SourceAlpha" type="matrix" values="0 0 0 0 0 0 0 0 0 0 0 0 0 0 0 0 0 0 127 0" result="hardAlpha"/>
<feOffset dy="5"/>
<feGaussianBlur stdDeviation="2.5"/>
<feComposite in2="hardAlpha" operator="out"/>
<feColorMatrix type="matrix" values="0 0 0 0 0 0 0 0 0 0 0 0 0 0 0 0 0 0 0.1 0"/>
<feBlend mode="normal" in2="BackgroundImageFix" result="effect1_dropShadow_1606_616"/>
<feBlend mode="normal" in="SourceGraphic" in2="effect1_dropShadow_1606_616" result="shape"/>
</filter>
</defs>
</svg>
