<svg width="40" height="40" viewBox="0 0 40 40" fill="none" xmlns="http://www.w3.org/2000/svg">
<path d="M10.418 3.33301C8.3513 3.33301 6.66797 5.01634 6.66797 7.08301V32.9163C6.66797 34.983 8.3513 36.6663 10.418 36.6663H29.5846C31.6513 36.6663 33.3346 34.983 33.3346 32.9163V24.3242L30.8346 26.8242V32.9163C30.8346 33.608 30.2763 34.1663 29.5846 34.1663H10.418C9.7263 34.1663 9.16797 33.608 9.16797 32.9163V7.08301C9.16797 6.39134 9.7263 5.83301 10.418 5.83301H20.0013V12.9163C20.0013 14.983 21.6846 16.6663 23.7513 16.6663H25.6768L28.1768 14.1663H23.7513C23.0596 14.1663 22.5013 13.608 22.5013 12.9163V7.60059L28.626 13.7253L29.8516 12.4915C30.0349 12.3082 30.2261 12.1419 30.4261 11.9919L22.1351 3.69922C21.9101 3.47422 21.6013 3.33301 21.2513 3.33301H10.418ZM36.6354 11.6501C36.2024 11.663 35.7915 11.8439 35.4896 12.1546L34.9378 12.7064C34.412 12.5334 33.8645 12.4715 33.3281 12.5387C32.4758 12.6456 31.6597 13.0385 31.0332 13.665C31.0327 13.665 31.0321 13.665 31.0316 13.665L23.0596 21.6387C22.7229 21.9753 22.4737 22.3881 22.3337 22.8431C22.3337 22.8436 22.3337 22.8442 22.3337 22.8447L20.89 27.5501C20.8237 27.767 20.8177 27.9979 20.8726 28.218C20.9275 28.438 21.0412 28.639 21.2016 28.7994C21.3619 28.9598 21.5629 29.0735 21.783 29.1284C22.0031 29.1833 22.2339 29.1773 22.4508 29.111L27.1562 27.6673C27.1568 27.6673 27.1573 27.6673 27.1579 27.6673C27.6129 27.5273 28.0257 27.278 28.3623 26.9414L36.4027 18.901C37.4307 17.8738 37.7148 16.3712 37.2897 15.068L37.8464 14.5114C38.0872 14.2773 38.2517 13.9759 38.3183 13.6467C38.3849 13.3175 38.3505 12.9758 38.2196 12.6665C38.0887 12.3572 37.8674 12.0947 37.5847 11.9133C37.302 11.7319 36.9711 11.6402 36.6354 11.6501ZM33.613 15.0257C33.9056 14.9851 34.199 15.0412 34.4333 15.1999C34.5076 15.2502 34.5703 15.3065 34.6302 15.3643C34.6482 15.3826 34.6667 15.4005 34.6855 15.418C35.1568 15.9248 35.1171 16.6518 34.6351 17.1335L26.5947 25.1738C26.5464 25.2222 26.4872 25.258 26.4222 25.278L23.971 26.0299L24.723 23.5788C24.743 23.5138 24.7788 23.4546 24.8271 23.4063L32.8008 15.4326C33.0293 15.2041 33.3203 15.0663 33.613 15.0257ZM14.5846 20.833C13.893 20.833 13.3346 21.3913 13.3346 22.083C13.3346 22.7747 13.893 23.333 14.5846 23.333H20.4424L20.7435 22.3581C20.9102 21.7997 21.1841 21.283 21.5508 20.833H14.5846ZM14.5846 26.6663C13.893 26.6663 13.3346 27.2247 13.3346 27.9163C13.3346 28.608 13.893 29.1663 14.5846 29.1663H19.4512C19.1428 28.5163 19.0766 27.7669 19.2933 27.0586L19.4186 26.6663H14.5846Z" fill="black"/>
</svg>
