<svg width="24" height="24" viewBox="0 0 24 24" fill="none" xmlns="http://www.w3.org/2000/svg">
<path d="M6.25 2C5.01 2 4 3.01 4 4.25V19.75C4 20.99 5.01 22 6.25 22H17.75C18.99 22 20 20.99 20 19.75V14.5947L18.5 16.0947V19.75C18.5 20.165 18.165 20.5 17.75 20.5H6.25C5.835 20.5 5.5 20.165 5.5 19.75V4.25C5.5 3.835 5.835 3.5 6.25 3.5H12V7.75C12 8.99 13.01 10 14.25 10H15.4053L16.9053 8.5H14.25C13.835 8.5 13.5 8.165 13.5 7.75V4.56055L17.1748 8.23535L17.9102 7.49512C18.0202 7.38512 18.1349 7.28531 18.2549 7.19531L13.2803 2.21973C13.1453 2.08473 12.96 2 12.75 2H6.25ZM21.9805 6.99023C21.7207 6.99798 21.4741 7.10655 21.293 7.29297L20.9619 7.62402C20.6464 7.52021 20.3179 7.48307 19.9961 7.52344C19.4847 7.58758 18.995 7.82332 18.6191 8.19922C18.6188 8.19922 18.6185 8.19922 18.6182 8.19922L13.835 12.9834C13.633 13.1854 13.4834 13.4331 13.3994 13.7061C13.3994 13.7064 13.3994 13.7067 13.3994 13.707L12.5332 16.5303C12.4934 16.6604 12.4898 16.7989 12.5228 16.931C12.5557 17.063 12.6239 17.1836 12.7202 17.2798C12.8164 17.3761 12.937 17.4443 13.069 17.4772C13.2011 17.5102 13.3396 17.5066 13.4697 17.4668L16.293 16.6006C16.2933 16.6006 16.2936 16.6006 16.2939 16.6006C16.5669 16.5166 16.8146 16.367 17.0166 16.165L21.8408 11.3408C22.4577 10.7245 22.6281 9.82294 22.373 9.04102L22.707 8.70703C22.8515 8.56657 22.9502 8.38573 22.9902 8.18821C23.0301 7.99069 23.0095 7.7857 22.931 7.60012C22.8524 7.41453 22.7197 7.257 22.55 7.14817C22.3804 7.03935 22.1819 6.98429 21.9805 6.99023ZM20.167 9.01562C20.3426 8.99127 20.5186 9.02492 20.6592 9.12012C20.7038 9.15033 20.7414 9.18412 20.7773 9.21875C20.7882 9.22975 20.7992 9.24049 20.8105 9.25098C21.0933 9.55509 21.0695 9.99127 20.7803 10.2803L15.9561 15.1045C15.927 15.1335 15.8915 15.155 15.8525 15.167L14.3818 15.6182L14.833 14.1475C14.845 14.1085 14.8665 14.073 14.8955 14.0439L19.6797 9.25977C19.8168 9.12267 19.9914 9.03998 20.167 9.01562ZM8.75 12.5C8.335 12.5 8 12.835 8 13.25C8 13.665 8.335 14 8.75 14H12.2646L12.4453 13.415C12.5453 13.08 12.7097 12.77 12.9297 12.5H8.75ZM8.75 16C8.335 16 8 16.335 8 16.75C8 17.165 8.335 17.5 8.75 17.5H11.6699C11.4849 17.11 11.4452 16.6604 11.5752 16.2354L11.6504 16H8.75Z" fill="#D5D5D5"/>
</svg>
