<svg width="24" height="24" viewBox="0 0 24 24" fill="none" xmlns="http://www.w3.org/2000/svg">
<path d="M6.25 2C5.01 2 4 3.01 4 4.25V19.75C4 20.99 5.01 22 6.25 22H17.75C18.99 22 20 20.99 20 19.75V14.3447L17.3447 17.0049C17.0397 17.3049 16.66 17.5352 16.25 17.6602L13.7646 18.4248C13.5946 18.4748 13.42 18.5 13.25 18.5C12.795 18.5 12.3446 18.3204 12.0146 17.9854C11.8696 17.8454 11.7549 17.68 11.6699 17.5H8.74512C8.33012 17.5 7.99512 17.165 7.99512 16.75C7.99512 16.37 8.27953 16.0549 8.64453 16.0049L8.74512 16H11.6445L12.2598 14H8.75C8.335 14 8 13.665 8 13.25C8 12.835 8.335 12.5 8.75 12.5H13.1504L15.6553 10H14.25C13.01 10 12 8.99 12 7.75V2H6.25ZM13.5 2.44043V7.75C13.5 8.165 13.835 8.5 14.25 8.5H17.1553L18.2197 7.43457C18.2647 7.38457 18.3152 7.33969 18.3652 7.30469L13.5 2.44043ZM21.9805 6.99023C21.7207 6.99798 21.4741 7.10655 21.293 7.29297L21.0029 7.58301C20.2909 7.38355 19.4906 7.57758 18.9277 8.13965L13.7031 13.3643C13.5146 13.5528 13.3754 13.7861 13.2979 14.0391L12.5332 16.5303C12.4517 16.7958 12.5232 17.0838 12.7197 17.2803C12.8627 17.4233 13.054 17.5 13.25 17.5C13.3235 17.5 13.3977 17.4893 13.4697 17.4668L15.96 16.7031C16.2145 16.6256 16.4472 16.4849 16.6357 16.2969L21.8965 11.0371C22.3355 10.5981 22.5531 9.99155 22.4941 9.37305C22.4818 9.24342 22.4545 9.11802 22.4189 8.99512L22.707 8.70703C22.8515 8.56657 22.9502 8.38573 22.9902 8.18821C23.0301 7.99069 23.0095 7.7857 22.931 7.60012C22.8524 7.41453 22.7197 7.257 22.55 7.14817C22.3804 7.03935 22.1819 6.98429 21.9805 6.99023Z" fill="#1564FF"/>
</svg>
