<svg width="38" height="44" viewBox="0 0 38 44" fill="none" xmlns="http://www.w3.org/2000/svg">
<g filter="url(#filter0_d_1606_614)">
<path d="M9.41797 0.333008C7.36172 0.333008 5.66797 2.02676 5.66797 4.08301V29.9163C5.66797 31.9726 7.36172 33.6663 9.41797 33.6663H28.5846C30.6409 33.6663 32.3346 31.9726 32.3346 29.9163V4.08301C32.3346 2.02676 30.6409 0.333008 28.5846 0.333008H9.41797ZM9.41797 2.83301H28.5846C29.29 2.83301 29.8346 3.37759 29.8346 4.08301V29.9163C29.8346 30.6218 29.29 31.1663 28.5846 31.1663H9.41797C8.71255 31.1663 8.16797 30.6218 8.16797 29.9163V4.08301C8.16797 3.37759 8.71255 2.83301 9.41797 2.83301ZM21.0651 6.98177C20.7339 6.98695 20.4182 7.12338 20.1875 7.36111C19.9568 7.59885 19.8299 7.91843 19.8346 8.24967V25.7497C19.8323 25.9153 19.8629 26.0798 19.9247 26.2335C19.9864 26.3872 20.0781 26.5271 20.1944 26.6451C20.3107 26.763 20.4493 26.8567 20.6022 26.9206C20.755 26.9846 20.919 27.0175 21.0846 27.0175C21.2503 27.0175 21.4143 26.9846 21.5671 26.9206C21.7199 26.8567 21.8585 26.763 21.9748 26.6451C22.0911 26.5271 22.1828 26.3872 22.2446 26.2335C22.3064 26.0798 22.337 25.9153 22.3346 25.7497V8.24967C22.337 8.08237 22.3058 7.91629 22.2429 7.76127C22.1799 7.60625 22.0864 7.46544 21.968 7.3472C21.8497 7.22897 21.7087 7.1357 21.5536 7.07293C21.3985 7.01015 21.2324 6.97916 21.0651 6.98177ZM11.918 6.99967C11.7523 6.99733 11.5879 7.02793 11.4342 7.0897C11.2805 7.15147 11.1406 7.24317 11.0226 7.35947C10.9046 7.47578 10.811 7.61437 10.747 7.76719C10.6831 7.92001 10.6502 8.08402 10.6502 8.24967C10.6502 8.41533 10.6831 8.57934 10.747 8.73216C10.811 8.88498 10.9046 9.02357 11.0226 9.13988C11.1406 9.25618 11.2805 9.34788 11.4342 9.40965C11.5879 9.47142 11.7523 9.50202 11.918 9.49967H16.0846C16.2503 9.50202 16.4147 9.47142 16.5684 9.40965C16.7221 9.34788 16.8621 9.25618 16.98 9.13988C17.098 9.02357 17.1916 8.88498 17.2556 8.73216C17.3195 8.57934 17.3524 8.41533 17.3524 8.24967C17.3524 8.08402 17.3195 7.92001 17.2556 7.76719C17.1916 7.61437 17.098 7.47578 16.98 7.35947C16.8621 7.24317 16.7221 7.15147 16.5684 7.0897C16.4147 7.02793 16.2503 6.99733 16.0846 6.99967H11.918ZM26.0846 6.99967C25.7531 6.99967 25.4352 7.13137 25.2008 7.36579C24.9663 7.60021 24.8346 7.91815 24.8346 8.24967C24.8346 8.5812 24.9663 8.89914 25.2008 9.13356C25.4352 9.36798 25.7531 9.49967 26.0846 9.49967C26.4162 9.49967 26.7341 9.36798 26.9685 9.13356C27.2029 8.89914 27.3346 8.5812 27.3346 8.24967C27.3346 7.91815 27.2029 7.60021 26.9685 7.36579C26.7341 7.13137 26.4162 6.99967 26.0846 6.99967ZM11.918 12.833C11.7523 12.8307 11.5879 12.8613 11.4342 12.923C11.2805 12.9848 11.1406 13.0765 11.0226 13.1928C10.9046 13.3091 10.811 13.4477 10.747 13.6005C10.6831 13.7533 10.6502 13.9174 10.6502 14.083C10.6502 14.2487 10.6831 14.4127 10.747 14.5655C10.811 14.7183 10.9046 14.8569 11.0226 14.9732C11.1406 15.0895 11.2805 15.1812 11.4342 15.243C11.5879 15.3047 11.7523 15.3354 11.918 15.333H16.0846C16.2503 15.3354 16.4147 15.3047 16.5684 15.243C16.7221 15.1812 16.8621 15.0895 16.98 14.9732C17.098 14.8569 17.1916 14.7183 17.2556 14.5655C17.3195 14.4127 17.3524 14.2487 17.3524 14.083C17.3524 13.9174 17.3195 13.7533 17.2556 13.6005C17.1916 13.4477 17.098 13.3091 16.98 13.1928C16.8621 13.0765 16.7221 12.9848 16.5684 12.923C16.4147 12.8613 16.2503 12.8307 16.0846 12.833H11.918ZM26.0846 12.833C25.7531 12.833 25.4352 12.9647 25.2008 13.1991C24.9663 13.4335 24.8346 13.7515 24.8346 14.083C24.8346 14.4145 24.9663 14.7325 25.2008 14.9669C25.4352 15.2013 25.7531 15.333 26.0846 15.333C26.4162 15.333 26.7341 15.2013 26.9685 14.9669C27.2029 14.7325 27.3346 14.4145 27.3346 14.083C27.3346 13.7515 27.2029 13.4335 26.9685 13.1991C26.7341 12.9647 26.4162 12.833 26.0846 12.833ZM11.918 18.6663C11.7523 18.664 11.5879 18.6946 11.4342 18.7564C11.2805 18.8181 11.1406 18.9098 11.0226 19.0261C10.9046 19.1424 10.811 19.281 10.747 19.4339C10.6831 19.5867 10.6502 19.7507 10.6502 19.9163C10.6502 20.082 10.6831 20.246 10.747 20.3988C10.811 20.5516 10.9046 20.6902 11.0226 20.8065C11.1406 20.9228 11.2805 21.0145 11.4342 21.0763C11.5879 21.1381 11.7523 21.1687 11.918 21.1663H16.0846C16.2503 21.1687 16.4147 21.1381 16.5684 21.0763C16.7221 21.0145 16.8621 20.9228 16.98 20.8065C17.098 20.6902 17.1916 20.5516 17.2556 20.3988C17.3195 20.246 17.3524 20.082 17.3524 19.9163C17.3524 19.7507 17.3195 19.5867 17.2556 19.4339C17.1916 19.281 17.098 19.1424 16.98 19.0261C16.8621 18.9098 16.7221 18.8181 16.5684 18.7564C16.4147 18.6946 16.2503 18.664 16.0846 18.6663H11.918ZM26.0846 18.6663C25.7531 18.6663 25.4352 18.798 25.2008 19.0325C24.9663 19.2669 24.8346 19.5848 24.8346 19.9163C24.8346 20.2479 24.9663 20.5658 25.2008 20.8002C25.4352 21.0346 25.7531 21.1663 26.0846 21.1663C26.4162 21.1663 26.7341 21.0346 26.9685 20.8002C27.2029 20.5658 27.3346 20.2479 27.3346 19.9163C27.3346 19.5848 27.2029 19.2669 26.9685 19.0325C26.7341 18.798 26.4162 18.6663 26.0846 18.6663ZM11.918 24.4997C11.7523 24.4973 11.5879 24.5279 11.4342 24.5897C11.2805 24.6515 11.1406 24.7432 11.0226 24.8595C10.9046 24.9758 10.811 25.1144 10.747 25.2672C10.6831 25.42 10.6502 25.584 10.6502 25.7497C10.6502 25.9153 10.6831 26.0793 10.747 26.2322C10.811 26.385 10.9046 26.5236 11.0226 26.6399C11.1406 26.7562 11.2805 26.8479 11.4342 26.9096C11.5879 26.9714 11.7523 27.002 11.918 26.9997H16.0846C16.2503 27.002 16.4147 26.9714 16.5684 26.9096C16.7221 26.8479 16.8621 26.7562 16.98 26.6399C17.098 26.5236 17.1916 26.385 17.2556 26.2322C17.3195 26.0793 17.3524 25.9153 17.3524 25.7497C17.3524 25.584 17.3195 25.42 17.2556 25.2672C17.1916 25.1144 17.098 24.9758 16.98 24.8595C16.8621 24.7432 16.7221 24.6515 16.5684 24.5897C16.4147 24.5279 16.2503 24.4973 16.0846 24.4997H11.918ZM26.0846 24.4997C25.7531 24.4997 25.4352 24.6314 25.2008 24.8658C24.9663 25.1002 24.8346 25.4182 24.8346 25.7497C24.8346 26.0812 24.9663 26.3991 25.2008 26.6336C25.4352 26.868 25.7531 26.9997 26.0846 26.9997C26.4162 26.9997 26.7341 26.868 26.9685 26.6336C27.2029 26.3991 27.3346 26.0812 27.3346 25.7497C27.3346 25.4182 27.2029 25.1002 26.9685 24.8658C26.7341 24.6314 26.4162 24.4997 26.0846 24.4997Z" fill="white"/>
</g>
<defs>
<filter id="filter0_d_1606_614" x="0.667969" y="0.333008" width="36.668" height="43.333" filterUnits="userSpaceOnUse" color-interpolation-filters="sRGB">
<feFlood flood-opacity="0" result="BackgroundImageFix"/>
<feColorMatrix in="SourceAlpha" type="matrix" values="0 0 0 0 0 0 0 0 0 0 0 0 0 0 0 0 0 0 127 0" result="hardAlpha"/>
<feOffset dy="5"/>
<feGaussianBlur stdDeviation="2.5"/>
<feComposite in2="hardAlpha" operator="out"/>
<feColorMatrix type="matrix" values="0 0 0 0 0 0 0 0 0 0 0 0 0 0 0 0 0 0 0.1 0"/>
<feBlend mode="normal" in2="BackgroundImageFix" result="effect1_dropShadow_1606_614"/>
<feBlend mode="normal" in="SourceGraphic" in2="effect1_dropShadow_1606_614" result="shape"/>
</filter>
</defs>
</svg>
