<svg width="44" height="44" viewBox="0 0 44 44" fill="none" xmlns="http://www.w3.org/2000/svg">
<g filter="url(#filter0_d_1606_611)">
<path d="M18.6654 0.75C14.3079 0.75 10.7487 4.30922 10.7487 8.66667C10.7487 13.0241 14.3079 16.5833 18.6654 16.5833C23.0228 16.5833 26.582 13.0241 26.582 8.66667C26.582 4.30922 23.0228 0.75 18.6654 0.75ZM18.6654 3.25C21.6717 3.25 24.082 5.66032 24.082 8.66667C24.082 11.673 21.6717 14.0833 18.6654 14.0833C15.659 14.0833 13.2487 11.673 13.2487 8.66667C13.2487 5.66032 15.659 3.25 18.6654 3.25ZM30.332 12C28.7695 12 27.4394 12.6309 26.5853 13.5918C25.7312 14.5527 25.332 15.7847 25.332 17C25.332 18.2153 25.7312 19.4474 26.5853 20.4082C27.4394 21.3691 28.7695 22 30.332 22C31.8945 22 33.2247 21.3691 34.0788 20.4082C34.9329 19.4474 35.332 18.2153 35.332 17C35.332 15.7847 34.9329 14.5527 34.0788 13.5918C33.2247 12.6309 31.8945 12 30.332 12ZM30.332 14.5C31.2695 14.5 31.8144 14.8066 32.2103 15.252C32.6062 15.6974 32.832 16.3403 32.832 17C32.832 17.6597 32.6062 18.3027 32.2103 18.748C31.8144 19.1934 31.2695 19.5 30.332 19.5C29.3945 19.5 28.8497 19.1934 28.4538 18.748C28.0579 18.3027 27.832 17.6597 27.832 17C27.832 16.3403 28.0579 15.6974 28.4538 15.252C28.8497 14.8066 29.3945 14.5 30.332 14.5ZM9.08203 20.3333C7.01453 20.3333 5.33203 22.0158 5.33203 24.0833V25.0827C5.33203 29.896 11.1887 33.6667 18.6654 33.6667C20.2279 33.6667 21.7132 33.4939 23.0957 33.1898C22.2624 32.5698 21.5866 31.8361 21.1149 31.0153C20.3424 31.112 19.5262 31.1667 18.6654 31.1667C11.9737 31.1667 7.83203 28.0085 7.83203 25.0827V24.0833C7.83203 23.3942 8.39286 22.8333 9.08203 22.8333H22.876C23.7101 22.3083 24.6929 22 25.7487 22H25.9375C25.3958 21.5233 24.9321 20.9608 24.5671 20.3333H9.08203ZM25.7487 23.6667C23.6924 23.6667 21.9987 25.3604 21.9987 27.4167V28.1182C21.9987 29.7748 23.0458 31.2129 24.5378 32.1644C26.0297 33.1159 28.0231 33.6667 30.332 33.6667C32.641 33.6667 34.6343 33.1159 36.1263 32.1644C37.6183 31.2129 38.6654 29.7748 38.6654 28.1182V27.4167C38.6654 25.3604 36.9716 23.6667 34.9154 23.6667H25.7487ZM25.7487 26.1667H34.9154C35.6208 26.1667 36.1654 26.7113 36.1654 27.4167V28.1182C36.1654 28.7115 35.7785 29.4211 34.7819 30.0566C33.7853 30.6922 32.2356 31.1667 30.332 31.1667C28.4285 31.1667 26.8787 30.6922 25.8822 30.0566C24.8856 29.4211 24.4987 28.7115 24.4987 28.1182V27.4167C24.4987 26.7113 25.0433 26.1667 25.7487 26.1667Z" fill="white"/>
</g>
<defs>
<filter id="filter0_d_1606_611" x="0.332031" y="0.75" width="43.332" height="42.917" filterUnits="userSpaceOnUse" color-interpolation-filters="sRGB">
<feFlood flood-opacity="0" result="BackgroundImageFix"/>
<feColorMatrix in="SourceAlpha" type="matrix" values="0 0 0 0 0 0 0 0 0 0 0 0 0 0 0 0 0 0 127 0" result="hardAlpha"/>
<feOffset dy="5"/>
<feGaussianBlur stdDeviation="2.5"/>
<feComposite in2="hardAlpha" operator="out"/>
<feColorMatrix type="matrix" values="0 0 0 0 0 0 0 0 0 0 0 0 0 0 0 0 0 0 0.1 0"/>
<feBlend mode="normal" in2="BackgroundImageFix" result="effect1_dropShadow_1606_611"/>
<feBlend mode="normal" in="SourceGraphic" in2="effect1_dropShadow_1606_611" result="shape"/>
</filter>
</defs>
</svg>
