<svg width="40" height="40" viewBox="0 0 40 40" fill="none" xmlns="http://www.w3.org/2000/svg">
<path d="M31.8896 4.07702C31.6994 4.08374 31.5075 4.10893 31.3184 4.15351L6.46973 9.99987H17.3861L31.8913 6.58678C32.0371 6.55012 32.1496 6.60391 32.2054 6.63724C32.2596 6.67141 32.3568 6.74936 32.3909 6.89603L33.1348 9.99987H35.6901L34.8258 6.32474C34.6475 5.56641 34.1846 4.92159 33.5221 4.51159C33.0246 4.20409 32.4603 4.05686 31.8896 4.07702ZM5.41667 11.6665C3.82087 11.6665 2.5 12.9874 2.5 14.5832V18.7743C2.50004 18.9515 2.53775 19.1266 2.61063 19.2881C2.6835 19.4496 2.78987 19.5938 2.92269 19.7111C3.05551 19.8284 3.21175 19.9161 3.38103 19.9684C3.55032 20.0207 3.72879 20.0364 3.90462 20.0145C3.98071 20.005 4.07402 19.9999 4.16667 19.9999C6.02566 19.9999 7.5 21.4742 7.5 23.3332C7.5 25.1922 6.02566 26.6665 4.16667 26.6665C4.07402 26.6665 3.98071 26.6614 3.90462 26.6519C3.72879 26.63 3.55032 26.6457 3.38103 26.698C3.21175 26.7503 3.05551 26.838 2.92269 26.9553C2.78987 27.0726 2.6835 27.2168 2.61063 27.3783C2.53775 27.5398 2.50004 27.7149 2.5 27.8921V32.0832C2.5 33.679 3.82087 34.9999 5.41667 34.9999H34.5833C36.1791 34.9999 37.5 33.679 37.5 32.0832V27.8921C37.5 27.7149 37.4622 27.5398 37.3894 27.3783C37.3165 27.2168 37.2101 27.0726 37.0773 26.9553C36.9445 26.838 36.7883 26.7503 36.619 26.698C36.4497 26.6457 36.2712 26.63 36.0954 26.6519C36.0193 26.6614 35.926 26.6665 35.8333 26.6665C33.9743 26.6665 32.5 25.1922 32.5 23.3332C32.5 21.4742 33.9743 19.9999 35.8333 19.9999C35.926 19.9999 36.0193 20.005 36.0954 20.0145C36.2712 20.0364 36.4497 20.0207 36.619 19.9684C36.7883 19.9161 36.9445 19.8284 37.0773 19.7111C37.2101 19.5938 37.3165 19.4496 37.3894 19.2881C37.4622 19.1266 37.5 18.9515 37.5 18.7743V14.5832C37.5 12.9874 36.1791 11.6665 34.5833 11.6665H5.41667ZM5.41667 14.1665H34.5833C34.8292 14.1665 35 14.3373 35 14.5832V17.6691C32.2004 18.0922 30 20.4207 30 23.3332C30 26.2457 32.2004 28.5742 35 28.9973V32.0832C35 32.3291 34.8292 32.4999 34.5833 32.4999H5.41667C5.1708 32.4999 5 32.3291 5 32.0832V28.9973C7.79956 28.5742 10 26.2457 10 23.3332C10 20.4207 7.79956 18.0922 5 17.6691V14.5832C5 14.3373 5.1708 14.1665 5.41667 14.1665Z" fill="black"/>
</svg>
