<svg width="24" height="24" viewBox="0 0 24 24" fill="none" xmlns="http://www.w3.org/2000/svg">
<path d="M12 2C10.6739 2 9.40215 2.52678 8.46447 3.46447C7.52678 4.40215 7 5.67392 7 7C7 8.32608 7.52678 9.59785 8.46447 10.5355C9.40215 11.4732 10.6739 12 12 12C13.3261 12 14.5979 11.4732 15.5355 10.5355C16.4732 9.59785 17 8.32608 17 7C17 5.67392 16.4732 4.40215 15.5355 3.46447C14.5979 2.52678 13.3261 2 12 2ZM18.0105 14H5.9895C4.8925 14 4 14.8925 4 15.9895V16.75C4 18.406 4.9425 19.838 6.6535 20.7815C8.077 21.5675 9.976 22 12 22C15.853 22 20 20.357 20 16.75V15.9895C20 14.8925 19.1075 14 18.0105 14Z" fill="#1564FF"/>
</svg>
